<?xml version="1.0" encoding="utf-8"?>
<!-- Generator: Adobe Illustrator 25.0.1, SVG Export Plug-In . SVG Version: 6.00 Build 0)  -->
<svg version="1.1" id="Capa_1" xmlns="http://www.w3.org/2000/svg" xmlns:xlink="http://www.w3.org/1999/xlink" x="0px" y="0px"
	 viewBox="0 0 268.5 57.8" style="enable-background:new 0 0 268.5 57.8;" xml:space="preserve">
<style type="text/css">
	.st0{fill:#FAD7E1;}
</style>
<path class="st0" d="M46.9,36v15.7l-2,1.4c-0.1,0-0.1,0-0.2,0.1c-0.1,0.1-0.2,0.2-0.3,0.2c-0.1,0.1-0.2,0.2-0.2,0.2
	c-0.1,0.1-0.2,0.2-0.3,0.2c-0.1,0.1-0.2,0.2-0.3,0.2c-0.1,0.1-0.2,0.1-0.2,0.2c-0.1,0.1-0.2,0.1-0.2,0.2c-0.2,0.1-0.2,0.1-0.4,0.2
	c-0.1,0.1-0.2,0.1-0.2,0.2c-0.1,0.1-0.2,0.2-0.4,0.2c-0.1,0.1-0.1,0.1-0.2,0.2c-0.1,0-0.1,0-0.2,0c-0.1,0.1-0.2,0.2-0.4,0.2
	c-0.2,0.1-0.4,0.2-0.5,0.2c0,0,0,0-0.1,0.1c-3.3,1.5-6.7,2.3-10.4,2.5c0,0,0,0-0.1,0c-0.2,0-0.4,0-0.6,0h-0.1c-0.2,0-0.5,0-0.7,0
	c-3.1,0-6.2-0.5-9.1-1.5c-0.1,0-0.1,0-0.1,0c-0.3-0.1-0.5-0.2-0.9-0.3c-0.4-0.2-0.8-0.3-1.2-0.5c-1-0.4-1.9-0.9-2.8-1.4
	c-2.3-1.2-4.5-2.9-6.4-4.8c-2.7-2.7-4.8-5.7-6.2-9.2c-1.1-2.7-1.9-5.5-2.1-8.3C0.1,30.9,0,29.9,0,28.9c0-0.5,0-1,0-1.5
	c0.2-3.4,0.9-6.7,2.3-9.8c1.5-3.4,3.6-6.5,6.2-9.2c2.7-2.7,5.7-4.8,9.2-6.2C21.2,0.7,25,0,28.9,0c0.2,0,0.5,0,0.7,0h0.1
	c0.2,0,0.5,0,0.6,0c0.1,0,0.1,0,0.1,0c0.2,0,0.5,0,0.7,0.1c3.4,0.2,6.6,1,9.7,2.4c0,0,0,0.1,0.1,0.1c0.2,0.1,0.3,0.2,0.5,0.2
	c0.1,0,0.1,0,0.1,0v10.7c-1.2-1-2.5-1.8-3.9-2.5c-1.2-0.5-2.4-1-3.6-1.3c-0.1,0-0.2,0-0.2-0.1c-0.1,0-0.2,0-0.2,0
	c-0.1-0.1-0.2-0.1-0.3-0.1c0,0-0.1,0-0.2-0.1c-0.3-0.1-0.7-0.1-1-0.2c-0.1,0-0.1,0-0.2,0c-0.1,0-0.2-0.1-0.3-0.1s-0.1,0-0.2,0
	c-0.1,0-0.2,0-0.3-0.1c-0.1,0-0.2,0-0.2,0c-0.2,0-0.3,0-0.5,0c-0.1,0-0.2-0.1-0.2-0.1S30,9,29.9,9s-0.2,0-0.3,0c-0.1,0-0.2,0-0.2,0
	c-0.2,0-0.4,0-0.5,0c-3.7,0-7.2,0.9-10.2,2.8c-0.1,0.1-0.2,0.2-0.4,0.2c-1.2,0.8-2.4,1.7-3.4,2.8c-0.3,0.3-0.7,0.6-1,1
	c0,0,0,0.1-0.1,0.1c-0.4,0.5-0.7,0.9-1,1.4c-0.1,0.1-0.2,0.2-0.2,0.2c-0.2,0.2-0.3,0.5-0.5,0.7c-0.1,0.1-0.2,0.2-0.2,0.3
	c-1.2,1.9-1.9,3.8-2.4,5.9c-0.1,0.1-0.1,0.1-0.1,0.2c-0.2,0.8-0.3,1.6-0.4,2.3c0,0.3,0,0.6,0,0.9C9,28.2,9,28.5,9,28.9
	c0,0.3,0,0.6,0.1,1c0.1,1.5,0.3,3,0.7,4.4c0.9,3.3,2.7,6.2,5.1,8.7c3.7,3.7,8.7,5.8,14,5.8c0.2,0,0.4,0,0.5,0c0.1,0,0.2,0,0.2-0.1
	c0.1,0,0.2,0,0.3,0c0.1,0,0.2,0,0.2,0c0.1,0,0.2,0,0.2,0c0.2,0,0.2,0,0.4,0c0-0.1,0.1-0.1,0.2-0.1c0.1,0,0.2,0,0.3,0
	c0.1,0,0.1,0,0.2,0c0.5-0.1,1.2-0.2,1.7-0.3c0.1,0,0.1,0,0.2-0.1c0.1,0,0.2,0,0.3-0.1c0.1,0,0.2,0,0.2,0c0.1-0.1,0.2-0.1,0.2-0.1
	c0.1-0.1,0.2-0.1,0.3-0.1c0.1,0,0.2-0.1,0.2-0.1c1.1-0.3,2.2-0.7,3.2-1.2c0,0,0,0,0.1,0V36H27v-8.2h20V36z"/>
<path class="st0" d="M59.1,55.6c-3.5-1.5-6.5-3.6-9.2-6.2c-2.7-2.7-4.8-5.7-6.2-9.2c-1.5-3.5-2.3-7.3-2.3-11.2
	c0-3.9,0.8-7.7,2.3-11.3c1.5-3.4,3.6-6.5,6.2-9.2c2.7-2.7,5.7-4.7,9.2-6.2C62.6,0.8,66.4,0,70.3,0c3.9,0,7.7,0.8,11.3,2.3
	c3.4,1.5,6.5,3.5,9.2,6.2c2.7,2.7,4.7,5.8,6.2,9.2c1.5,3.6,2.3,7.4,2.3,11.3c0,3.9-0.8,7.7-2.3,11.2c-1.5,3.5-3.5,6.5-6.2,9.2
	c-2.7,2.7-5.8,4.8-9.2,6.2c-3.6,1.5-7.4,2.3-11.3,2.3C66.4,57.8,62.6,57.1,59.1,55.6z"/>
<path class="st0" d="M135.7,57.8h-9V32.9h-23.1v24.9h-9V0h9v24.7h23.1V0h9V57.8z"/>
<path class="st0" d="M175.4,36v15.7l-2,1.4c-0.1,0-0.1,0-0.2,0.1c-0.1,0.1-0.2,0.2-0.3,0.2c-0.1,0.1-0.2,0.2-0.2,0.2
	c-0.1,0.1-0.2,0.2-0.3,0.2c-0.1,0.1-0.2,0.2-0.3,0.2c-0.1,0.1-0.2,0.1-0.2,0.2c-0.1,0.1-0.2,0.1-0.2,0.2c-0.2,0.1-0.2,0.1-0.4,0.2
	c-0.1,0.1-0.2,0.1-0.2,0.2c-0.1,0.1-0.2,0.2-0.4,0.2c-0.1,0.1-0.1,0.1-0.2,0.2c-0.1,0-0.1,0-0.2,0c-0.1,0.1-0.2,0.2-0.4,0.2
	c-0.2,0.1-0.4,0.2-0.5,0.2c0,0,0,0-0.1,0.1c-3.3,1.5-6.7,2.3-10.4,2.5c0,0,0,0-0.1,0c-0.2,0-0.4,0-0.6,0h-0.1c-0.2,0-0.5,0-0.7,0
	c-3.1,0-6.2-0.5-9.1-1.5c-0.1,0-0.1,0-0.1,0c-0.3-0.1-0.5-0.2-0.9-0.3c-0.4-0.2-0.8-0.3-1.2-0.5c-1-0.4-1.9-0.9-2.8-1.4
	c-2.3-1.2-4.5-2.9-6.4-4.8c-2.7-2.7-4.8-5.7-6.2-9.2c-1.1-2.7-1.9-5.5-2.1-8.3c-0.1-0.9-0.2-1.9-0.2-2.9c0-0.5,0-1,0-1.5
	c0.2-3.4,0.9-6.7,2.3-9.8c1.5-3.4,3.6-6.5,6.2-9.2c2.7-2.7,5.7-4.8,9.2-6.2c3.5-1.6,7.3-2.3,11.2-2.3c0.2,0,0.5,0,0.7,0h0.1
	c0.2,0,0.5,0,0.6,0c0.1,0,0.1,0,0.1,0c0.2,0,0.5,0,0.7,0.1c3.4,0.2,6.6,1,9.7,2.4c0,0,0,0.1,0.1,0.1c0.2,0.1,0.3,0.2,0.5,0.2
	c0.1,0,0.1,0,0.1,0v10.7c-1.2-1-2.5-1.8-3.9-2.5c-1.2-0.5-2.4-1-3.6-1.3c-0.1,0-0.2,0-0.2-0.1c-0.1,0-0.2,0-0.2,0
	c-0.1-0.1-0.2-0.1-0.3-0.1c0,0-0.1,0-0.2-0.1c-0.3-0.1-0.7-0.1-1-0.2c-0.1,0-0.1,0-0.2,0s-0.2-0.1-0.3-0.1s-0.1,0-0.2,0
	s-0.2,0-0.3-0.1c-0.1,0-0.2,0-0.2,0c-0.2,0-0.3,0-0.5,0c-0.1,0-0.2-0.1-0.2-0.1c-0.1,0-0.2,0-0.2,0s-0.2,0-0.3,0c-0.1,0-0.2,0-0.2,0
	c-0.2,0-0.4,0-0.5,0c-3.7,0-7.2,0.9-10.2,2.8c-0.1,0.1-0.2,0.2-0.4,0.2c-1.2,0.8-2.4,1.7-3.4,2.8c-0.3,0.3-0.7,0.6-1,1
	c0,0,0,0.1-0.1,0.1c-0.4,0.5-0.7,0.9-1,1.4c-0.1,0.1-0.2,0.2-0.2,0.2c-0.2,0.2-0.3,0.5-0.5,0.7c-0.1,0.1-0.2,0.2-0.2,0.3
	c-1.2,1.9-1.9,3.8-2.4,5.9c-0.1,0.1-0.1,0.1-0.1,0.2c-0.2,0.8-0.3,1.6-0.4,2.3c0,0.3,0,0.6,0,0.9c-0.1,0.4-0.1,0.7-0.1,1.1
	c0,0.3,0,0.6,0.1,1c0.1,1.5,0.3,3,0.7,4.4c0.9,3.3,2.6,6.2,5.1,8.7c3.7,3.7,8.7,5.8,14,5.8c0.2,0,0.4,0,0.5,0c0.1,0,0.2,0,0.2-0.1
	c0.1,0,0.2,0,0.3,0s0.2,0,0.2,0c0.1,0,0.2,0,0.2,0c0.2,0,0.2,0,0.4,0c0-0.1,0.1-0.1,0.2-0.1s0.2,0,0.3,0c0.1,0,0.1,0,0.2,0
	c0.5-0.1,1.2-0.2,1.7-0.3c0.1,0,0.1,0,0.2-0.1c0.1,0,0.2,0,0.3-0.1c0.1,0,0.2,0,0.2,0c0.1-0.1,0.2-0.1,0.2-0.1
	c0.1-0.1,0.2-0.1,0.3-0.1s0.2-0.1,0.2-0.1c1.1-0.3,2.2-0.7,3.2-1.2c0,0,0,0,0.1,0V36h-10.9v-8.2h20V36z"/>
<path class="st0" d="M189.7,55.6c-3.5-1.5-6.5-3.6-9.2-6.2c-2.7-2.7-4.8-5.7-6.2-9.2c-1.5-3.5-2.3-7.3-2.3-11.2
	c0-3.9,0.8-7.7,2.3-11.3c1.5-3.4,3.6-6.5,6.2-9.2c2.7-2.7,5.7-4.7,9.2-6.2C193.2,0.8,197,0,200.9,0c3.9,0,7.7,0.8,11.3,2.3
	c3.4,1.5,6.5,3.5,9.2,6.2c2.7,2.7,4.7,5.8,6.2,9.2c1.5,3.6,2.3,7.4,2.3,11.3c0,3.9-0.8,7.7-2.3,11.2c-1.5,3.5-3.5,6.5-6.2,9.2
	c-2.7,2.7-5.8,4.8-9.2,6.2c-3.6,1.5-7.4,2.3-11.3,2.3C197,57.8,193.2,57.1,189.7,55.6z"/>
<path class="st0" d="M268.5,57.8h-9V32.9h-23.1v24.9h-9V0h9v24.7h23.1V0h9V57.8z"/>
</svg>
